<svg width="24" height="24" viewBox="0 0 24 24" fill="none" xmlns="http://www.w3.org/2000/svg">
<g id="Frame">
<path id="Vector" d="M2.5005 17.0039C1.80192 13.7072 1.80192 10.3006 2.5005 7.00391C2.59228 6.66912 2.76963 6.36398 3.0151 6.11851C3.26057 5.87304 3.5657 5.69569 3.9005 5.60391C9.26394 4.71536 14.737 4.71536 20.1005 5.60391C20.4353 5.69569 20.7404 5.87304 20.9859 6.11851C21.2314 6.36398 21.4087 6.66912 21.5005 7.00391C22.1991 10.3006 22.1991 13.7072 21.5005 17.0039C21.4087 17.3387 21.2314 17.6438 20.9859 17.8893C20.7404 18.1348 20.4353 18.3121 20.1005 18.4039C14.7371 19.2926 9.26393 19.2926 3.9005 18.4039C3.5657 18.3121 3.26057 18.1348 3.0151 17.8893C2.76963 17.6438 2.59228 17.3387 2.5005 17.0039Z" stroke="black" stroke-width="2" stroke-linecap="round" stroke-linejoin="round"/>
<path id="Vector_2" d="M10 15L15 12L10 9V15Z" stroke="black" stroke-width="2" stroke-linecap="round" stroke-linejoin="round"/>
</g>
</svg>
