<svg width="18" height="18" viewBox="0 0 18 18" fill="none" xmlns="http://www.w3.org/2000/svg">
<g id="SVG">
<path id="Vector" d="M14.4906 4.17164C14.3766 4.11278 14.2658 4.04823 14.1583 3.97828C13.8459 3.77172 13.5594 3.52834 13.3051 3.25335C12.6688 2.52528 12.4311 1.78664 12.3435 1.2695H12.347C12.2739 0.840234 12.3042 0.5625 12.3088 0.5625H9.41046V11.7696C9.41046 11.92 9.41046 12.0688 9.40414 12.2157C9.40414 12.234 9.40237 12.2509 9.40133 12.2706C9.40133 12.2787 9.40133 12.2871 9.39957 12.2956V12.3019C9.36902 12.704 9.24011 13.0924 9.0242 13.4331C8.80829 13.7736 8.51199 14.056 8.16136 14.2551C7.79593 14.463 7.38261 14.5721 6.96218 14.5716C5.61183 14.5716 4.51742 13.4705 4.51742 12.1106C4.51742 10.7508 5.61183 9.64969 6.96218 9.64969C7.2178 9.64945 7.47184 9.68967 7.71488 9.76887L7.71839 6.81785C6.9806 6.72255 6.23104 6.78118 5.51704 6.99006C4.80303 7.19894 4.14006 7.55352 3.56996 8.03144C3.07041 8.46548 2.65044 8.98337 2.32895 9.56179C2.2066 9.77273 1.74499 10.6203 1.6891 11.996C1.65395 12.7769 1.88843 13.5858 2.00023 13.9201V13.9272C2.07054 14.124 2.34301 14.7959 2.78702 15.3622C3.14507 15.8165 3.56809 16.2156 4.04246 16.5466V16.5396L4.04949 16.5466C5.45258 17.5 7.00824 17.4375 7.00824 17.4375C7.27754 17.4266 8.17964 17.4375 9.2041 16.952C10.3404 16.4138 10.9872 15.6118 10.9872 15.6118C11.4004 15.1327 11.7291 14.5866 11.9589 13.9971C12.2212 13.3077 12.3088 12.4809 12.3088 12.1503V6.20472C12.3439 6.22582 12.8122 6.53554 12.8122 6.53554C12.8122 6.53554 13.4869 6.96797 14.5394 7.24957C15.2945 7.44996 16.312 7.49215 16.312 7.49215V4.61496C15.9555 4.65363 15.2316 4.54113 14.4906 4.17164Z" fill="#000001" fill-opacity="0.89"/>
</g>
</svg>
