<svg width="18" height="18" viewBox="0 0 18 18" fill="none" xmlns="http://www.w3.org/2000/svg">
<g id="SVG">
<path id="Vector" d="M16.6336 7.78641L16.5541 7.44925H9.22613V10.5507H13.6046C13.1499 12.7093 11.0406 13.8456 9.31754 13.8456C8.06387 13.8456 6.74234 13.3182 5.86766 12.4706C5.40617 12.0162 5.03884 11.4753 4.78667 10.8789C4.53451 10.2824 4.40248 9.64197 4.39813 8.99437C4.39813 7.68797 4.98524 6.38121 5.83953 5.52164C6.69383 4.66207 7.98406 4.18113 9.26691 4.18113C10.7361 4.18113 11.789 4.96125 12.1828 5.31703L14.3868 3.12469C13.7402 2.55656 11.9641 1.125 9.1959 1.125C7.06016 1.125 5.01231 1.94309 3.51535 3.43512C2.03809 4.9043 1.27344 7.02879 1.27344 9C1.27344 10.9712 1.99696 12.9896 3.42852 14.4703C4.95816 16.0496 7.12449 16.875 9.35516 16.875C11.3847 16.875 13.3085 16.0797 14.6796 14.6369C16.0275 13.2166 16.7246 11.2515 16.7246 9.19125C16.7246 8.32394 16.6374 7.80891 16.6336 7.78641Z" fill="#000001" fill-opacity="0.89"/>
</g>
</svg>
