<svg width="25" height="25" viewBox="0 0 25 25" fill="none" xmlns="http://www.w3.org/2000/svg">
<path d="M12.4004 13.2969C12.9527 13.2969 13.4004 12.8492 13.4004 12.2969C13.4004 11.7446 12.9527 11.2969 12.4004 11.2969C11.8481 11.2969 11.4004 11.7446 11.4004 12.2969C11.4004 12.8492 11.8481 13.2969 12.4004 13.2969Z" stroke="black" stroke-width="2" stroke-linecap="round" stroke-linejoin="round"/>
<path d="M19.4004 13.2969C19.9527 13.2969 20.4004 12.8492 20.4004 12.2969C20.4004 11.7446 19.9527 11.2969 19.4004 11.2969C18.8481 11.2969 18.4004 11.7446 18.4004 12.2969C18.4004 12.8492 18.8481 13.2969 19.4004 13.2969Z" stroke="black" stroke-width="2" stroke-linecap="round" stroke-linejoin="round"/>
<path d="M5.40039 13.2969C5.95268 13.2969 6.40039 12.8492 6.40039 12.2969C6.40039 11.7446 5.95268 11.2969 5.40039 11.2969C4.84811 11.2969 4.40039 11.7446 4.40039 12.2969C4.40039 12.8492 4.84811 13.2969 5.40039 13.2969Z" stroke="black" stroke-width="2" stroke-linecap="round" stroke-linejoin="round"/>
</svg>
