<svg width="25" height="25" viewBox="0 0 25 25" fill="none" xmlns="http://www.w3.org/2000/svg">
<path d="M10.4004 13.3007C10.8298 13.8749 11.3777 14.3499 12.0069 14.6937C12.6361 15.0374 13.3319 15.2419 14.047 15.2931C14.7622 15.3443 15.48 15.2411 16.1517 14.9905C16.8235 14.7399 17.4335 14.3478 17.9404 13.8407L20.9404 10.8407C21.8512 9.89774 22.3552 8.63472 22.3438 7.32374C22.3324 6.01276 21.8065 4.75869 20.8795 3.83165C19.9524 2.90461 18.6984 2.37877 17.3874 2.36738C16.0764 2.35598 14.8134 2.85996 13.8704 3.77075L12.1504 5.48075" stroke="black" stroke-width="2" stroke-linecap="round" stroke-linejoin="round"/>
<path d="M14.4006 11.2942C13.9711 10.72 13.4232 10.245 12.794 9.90123C12.1648 9.55747 11.4691 9.35305 10.7539 9.30184C10.0388 9.25062 9.321 9.3538 8.64924 9.60439C7.97749 9.85497 7.36748 10.2471 6.86059 10.7542L3.86059 13.7542C2.9498 14.6972 2.44583 15.9602 2.45722 17.2712C2.46861 18.5822 2.99446 19.8362 3.9215 20.7633C4.84854 21.6903 6.1026 22.2161 7.41358 22.2275C8.72457 22.2389 9.98758 21.735 10.9306 20.8242L12.6406 19.1142" stroke="black" stroke-width="2" stroke-linecap="round" stroke-linejoin="round"/>
</svg>
