<svg width="25" height="25" viewBox="0 0 25 25" fill="none" xmlns="http://www.w3.org/2000/svg">
<path d="M7.40039 3.29688H4.40039C3.84811 3.29688 3.40039 3.74459 3.40039 4.29688V7.29688C3.40039 7.84916 3.84811 8.29688 4.40039 8.29688H7.40039C7.95268 8.29688 8.40039 7.84916 8.40039 7.29688V4.29688C8.40039 3.74459 7.95268 3.29688 7.40039 3.29688Z" stroke="black" stroke-width="2" stroke-linecap="round" stroke-linejoin="round"/>
<path d="M20.4004 3.29688H17.4004C16.8481 3.29688 16.4004 3.74459 16.4004 4.29688V7.29688C16.4004 7.84916 16.8481 8.29688 17.4004 8.29688H20.4004C20.9527 8.29688 21.4004 7.84916 21.4004 7.29688V4.29688C21.4004 3.74459 20.9527 3.29688 20.4004 3.29688Z" stroke="black" stroke-width="2" stroke-linecap="round" stroke-linejoin="round"/>
<path d="M7.40039 16.2969H4.40039C3.84811 16.2969 3.40039 16.7446 3.40039 17.2969V20.2969C3.40039 20.8492 3.84811 21.2969 4.40039 21.2969H7.40039C7.95268 21.2969 8.40039 20.8492 8.40039 20.2969V17.2969C8.40039 16.7446 7.95268 16.2969 7.40039 16.2969Z" stroke="black" stroke-width="2" stroke-linecap="round" stroke-linejoin="round"/>
<path d="M21.4004 16.2969H18.4004C17.87 16.2969 17.3613 16.5076 16.9862 16.8827C16.6111 17.2577 16.4004 17.7664 16.4004 18.2969V21.2969" stroke="black" stroke-width="2" stroke-linecap="round" stroke-linejoin="round"/>
<path d="M21.4004 21.2969V21.3069" stroke="black" stroke-width="2" stroke-linecap="round" stroke-linejoin="round"/>
<path d="M12.4004 7.29688V10.2969C12.4004 10.8273 12.1897 11.336 11.8146 11.7111C11.4395 12.0862 10.9308 12.2969 10.4004 12.2969H7.40039" stroke="black" stroke-width="2" stroke-linecap="round" stroke-linejoin="round"/>
<path d="M3.40039 12.2969H3.41039" stroke="black" stroke-width="2" stroke-linecap="round" stroke-linejoin="round"/>
<path d="M12.4004 3.29688H12.4104" stroke="black" stroke-width="2" stroke-linecap="round" stroke-linejoin="round"/>
<path d="M12.4004 16.2969V16.3069" stroke="black" stroke-width="2" stroke-linecap="round" stroke-linejoin="round"/>
<path d="M16.4004 12.2969H17.4004" stroke="black" stroke-width="2" stroke-linecap="round" stroke-linejoin="round"/>
<path d="M21.4004 12.2969V12.3069" stroke="black" stroke-width="2" stroke-linecap="round" stroke-linejoin="round"/>
<path d="M12.4004 21.2969V20.2969" stroke="black" stroke-width="2" stroke-linecap="round" stroke-linejoin="round"/>
</svg>
