<svg width="25" height="25" viewBox="0 0 25 25" fill="none" xmlns="http://www.w3.org/2000/svg">
<path d="M3.40039 7.29688V5.29688C3.40039 4.76644 3.6111 4.25773 3.98618 3.88266C4.36125 3.50759 4.86996 3.29688 5.40039 3.29688H7.40039" stroke="black" stroke-width="2" stroke-linecap="round" stroke-linejoin="round"/>
<path d="M17.4004 3.29688H19.4004C19.9308 3.29688 20.4395 3.50759 20.8146 3.88266C21.1897 4.25773 21.4004 4.76644 21.4004 5.29688V7.29688" stroke="black" stroke-width="2" stroke-linecap="round" stroke-linejoin="round"/>
<path d="M21.4004 17.2969V19.2969C21.4004 19.8273 21.1897 20.336 20.8146 20.7111C20.4395 21.0862 19.9308 21.2969 19.4004 21.2969H17.4004" stroke="black" stroke-width="2" stroke-linecap="round" stroke-linejoin="round"/>
<path d="M7.40039 21.2969H5.40039C4.86996 21.2969 4.36125 21.0862 3.98618 20.7111C3.6111 20.336 3.40039 19.8273 3.40039 19.2969V17.2969" stroke="black" stroke-width="2" stroke-linecap="round" stroke-linejoin="round"/>
<path d="M12.4004 13.2969C12.9527 13.2969 13.4004 12.8492 13.4004 12.2969C13.4004 11.7446 12.9527 11.2969 12.4004 11.2969C11.8481 11.2969 11.4004 11.7446 11.4004 12.2969C11.4004 12.8492 11.8481 13.2969 12.4004 13.2969Z" stroke="black" stroke-width="2" stroke-linecap="round" stroke-linejoin="round"/>
<path d="M19.3444 12.623C19.4191 12.4093 19.4191 12.1767 19.3444 11.963C18.7814 10.5834 17.8202 9.40281 16.5835 8.57176C15.3467 7.74071 13.8904 7.29687 12.4004 7.29688C10.9104 7.29687 9.45411 7.74071 8.21735 8.57176C6.9806 9.40281 6.01942 10.5834 5.45641 11.963C5.38172 12.1767 5.38172 12.4093 5.45641 12.623C6.01942 14.0026 6.9806 15.1832 8.21735 16.0142C9.45411 16.8453 10.9104 17.2891 12.4004 17.2891C13.8904 17.2891 15.3467 16.8453 16.5835 16.0142C17.8202 15.1832 18.7814 14.0026 19.3444 12.623Z" stroke="black" stroke-width="2" stroke-linecap="round" stroke-linejoin="round"/>
</svg>
