<svg width="25" height="25" viewBox="0 0 25 25" fill="none" xmlns="http://www.w3.org/2000/svg">
<path d="M21.3994 12.2973C21.9514 12.2973 22.4044 11.8483 22.3494 11.2993C22.1189 9.00345 21.1015 6.85799 19.4698 5.22661C17.838 3.59522 15.6923 2.57832 13.3964 2.34828C12.8464 2.29328 12.3984 2.74628 12.3984 3.29828V11.2983C12.3984 11.5635 12.5038 11.8179 12.6913 12.0054C12.8789 12.1929 13.1332 12.2983 13.3984 12.2983L21.3994 12.2973Z" stroke="black" stroke-width="2" stroke-linecap="round" stroke-linejoin="round"/>
<path d="M21.6108 16.185C20.9746 17.6895 19.9796 19.0152 18.7127 20.0463C17.4458 21.0774 15.9456 21.7824 14.3432 22.0998C12.7409 22.4171 11.0852 22.3371 9.52094 21.8668C7.95666 21.3964 6.53142 20.5501 5.36981 19.4017C4.20821 18.2532 3.34561 16.8378 2.85743 15.2789C2.36925 13.7201 2.27036 12.0655 2.56939 10.4596C2.86843 8.85378 3.55629 7.34563 4.57284 6.06703C5.58939 4.78843 6.90368 3.77832 8.40079 3.125" stroke="black" stroke-width="2" stroke-linecap="round" stroke-linejoin="round"/>
</svg>
